<svg width="256" height="256" viewBox="0 0 256 256" fill="none" xmlns="http://www.w3.org/2000/svg">
  <rect width="256" height="256" rx="64" fill="#17373A"/>
  <path d="M70 78C70 65.8497 79.8497 56 92 56H164C176.15 56 186 65.8497 186 78V143C186 155.15 176.15 165 164 165H118.072L89.1431 191.04C82.0464 197.427 70 192.388 70 182.853V78Z" fill="#F6F1E5"/>
  <circle cx="104" cy="110" r="12" fill="#17373A"/>
  <circle cx="128" cy="110" r="12" fill="#17373A"/>
  <circle cx="152" cy="110" r="12" fill="#17373A"/>
  <path d="M101 206C148.496 206 187 167.496 187 120H211C211 180.199 162.199 229 102 229H54L68.8353 206H101Z" fill="#3CA59A"/>
</svg>
